<?xml version="1.0" standalone="no"?>
<!DOCTYPE svg PUBLIC "-//W3C//DTD SVG 20010904//EN"
 "http://www.w3.org/TR/2001/REC-SVG-20010904/DTD/svg10.dtd">
<svg version="1.0" xmlns="http://www.w3.org/2000/svg"
 width="559.000000pt" height="437.000000pt" viewBox="0 0 559.000000 437.000000"
 preserveAspectRatio="xMidYMid meet">

<g transform="translate(0.000000,437.000000) scale(0.100000,-0.100000)"
fill="#000000" stroke="none">
<path d="M2565 4039 c-212 -31 -345 -67 -504 -136 -236 -102 -399 -213 -599
-408 -128 -124 -157 -158 -247 -295 -57 -85 -114 -177 -127 -205 -75 -150
-127 -293 -162 -448 -17 -75 -36 -275 -36 -387 0 -505 175 -949 510 -1294 169
-174 276 -257 502 -389 122 -72 230 -122 338 -158 l85 -28 -3 -48 c-1 -26 -3
-70 -5 -98 l-2 -50 85 0 85 0 7 87 c3 48 9 92 13 99 5 8 21 9 54 3 25 -5 151
-9 279 -9 l232 0 0 -83 c0 -69 3 -84 18 -90 26 -11 239 -5 262 8 34 18 25 48
-20 61 -41 13 -62 35 -73 80 -8 32 0 39 73 63 99 33 412 192 525 266 127 84
330 277 427 404 67 90 176 270 215 355 35 77 100 270 108 317 3 22 12 75 20
119 38 217 44 439 16 650 -19 150 -95 399 -166 550 -102 215 -200 358 -351
510 -263 265 -602 448 -969 526 -173 37 -443 49 -590 28z m373 -90 c221 -24
415 -80 617 -179 288 -140 484 -295 649 -509 377 -490 470 -1268 220 -1835
-55 -123 -114 -220 -219 -361 -176 -236 -373 -392 -654 -522 -79 -36 -288
-123 -296 -123 -3 0 -5 11 -5 25 0 13 -8 40 -17 59 -15 33 -15 37 0 54 11 12
13 22 7 28 -7 7 -7 27 1 62 9 39 17 52 31 52 10 0 29 18 45 43 15 23 28 44 30
46 1 2 14 -4 29 -13 22 -15 27 -16 37 -3 11 13 22 12 92 -5 54 -13 100 -18
140 -15 75 6 203 55 288 110 76 49 185 149 169 155 -23 7 -12 31 33 70 25 22
54 51 65 65 l20 25 -22 -6 c-19 -4 -20 -2 -14 19 4 13 8 31 8 39 0 8 8 23 16
33 26 30 9 27 -50 -9 -59 -36 -86 -38 -69 -5 5 9 26 26 45 36 42 23 45 29 14
32 -54 4 -73 9 -71 19 1 5 -6 20 -15 32 l-17 22 -59 -20 c-93 -32 -168 -35
-269 -11 -126 30 -289 119 -318 173 -8 15 -8 19 0 13 13 -8 66 8 131 38 25 12
72 29 105 38 76 22 41 23 -89 4 -143 -22 -221 -20 -246 5 -11 11 -20 24 -20
30 0 5 -17 18 -39 29 -37 19 -67 57 -35 44 7 -3 14 -9 14 -14 0 -17 78 -10 88
7 6 11 17 15 31 11 39 -10 55 31 48 123 -4 44 -3 80 1 80 4 0 9 50 10 112 2
102 4 114 25 137 37 40 45 85 9 49 -6 -6 -15 -9 -18 -5 -4 3 7 22 25 42 33 38
41 75 15 75 -8 0 -13 -4 -10 -8 6 -11 -41 -38 -50 -29 -10 10 -14 78 -4 72 17
-10 50 38 50 73 0 33 -1 34 -18 19 -10 -10 -24 -17 -31 -17 -6 0 -14 -6 -17
-14 -8 -20 -36 -29 -45 -15 -4 7 -3 24 3 40 7 21 4 39 -14 81 -12 29 -22 71
-21 93 0 25 -6 49 -18 64 -23 29 -24 77 -3 120 13 26 14 37 4 61 -7 16 -19 35
-27 42 -17 14 -25 6 -69 -70 -24 -43 -34 -47 -59 -27 -20 15 -20 16 3 31 12 9
22 25 22 35 0 11 6 19 13 20 24 1 61 60 60 96 -1 44 -7 49 -38 33 -30 -16 -40
-9 -26 18 9 18 7 24 -18 41 -16 12 -36 21 -44 21 -8 0 -18 12 -21 26 -8 30
-30 27 -34 -4 -4 -26 -46 -31 -56 -7 -3 8 -16 15 -29 15 -22 0 -47 16 -47 31
0 4 20 10 45 13 42 7 44 8 35 32 -6 14 -10 35 -10 47 0 28 -106 208 -155 265
-49 56 -76 56 -129 -2 -54 -58 -145 -219 -156 -275 -6 -36 -18 -53 -66 -97
-33 -29 -66 -53 -75 -54 -8 0 -25 -11 -37 -25 -12 -14 -26 -25 -31 -25 -5 0
-11 -10 -14 -21 -5 -17 -11 -20 -31 -17 -18 4 -24 2 -17 -6 18 -24 19 -71 1
-106 -33 -65 -74 -248 -60 -265 8 -10 -12 -154 -25 -174 -10 -17 -32 -13 -39
6 -9 21 -25 5 -28 -27 -2 -25 27 -80 42 -80 4 0 7 -13 6 -30 -1 -38 -15 -38
-51 0 -16 17 -32 27 -36 23 -4 -5 -1 -33 7 -63 8 -30 14 -64 14 -76 0 -12 9
-33 21 -48 23 -29 45 -161 34 -203 -3 -13 1 -36 9 -51 8 -16 15 -44 14 -63 0
-19 1 -43 3 -54 4 -19 -1 -20 -79 -17 -51 1 -96 9 -114 18 -37 19 -44 14 -26
-23 17 -36 73 -51 221 -60 59 -3 110 -9 112 -13 10 -16 -119 -73 -222 -100
-25 -6 -53 -23 -70 -42 -55 -61 -76 -78 -98 -78 -12 0 -37 -11 -56 -25 -19
-14 -59 -42 -89 -62 -30 -21 -72 -51 -92 -66 l-37 -29 -53 20 -53 20 -3 68
c-3 57 -7 73 -27 93 -13 13 -36 24 -51 25 -22 1 -29 7 -36 31 -5 22 -4 32 7
38 8 4 15 19 15 32 0 14 4 25 10 25 17 0 44 72 45 124 1 28 7 64 13 79 26 63
5 163 -43 205 -15 12 -25 26 -22 29 4 3 0 15 -8 27 -8 11 -15 29 -15 39 0 9
-7 20 -15 23 -18 7 -20 31 -3 36 14 5 17 96 3 100 -5 2 -11 -21 -13 -50 -2
-36 -7 -52 -17 -52 -18 0 -32 23 -17 28 20 6 13 22 -13 32 -27 10 -30 27 -15
79 5 20 6 40 1 49 -5 9 -5 26 0 41 8 21 4 30 -31 65 -35 34 -41 46 -39 76 2
20 0 41 -4 48 -5 6 -3 20 3 31 7 14 7 35 1 63 -5 24 -7 57 -4 73 8 46 4 145
-6 164 -7 12 -4 30 8 57 27 58 77 135 101 151 11 8 20 20 20 28 0 20 80 116
91 109 6 -3 7 -24 3 -51 -5 -33 -4 -44 5 -39 6 4 11 19 11 34 1 30 26 141 34
149 3 3 12 3 21 0 12 -5 15 -27 15 -121 0 -66 4 -117 10 -121 6 -4 10 23 10
73 0 75 26 207 50 252 6 11 19 20 29 20 23 0 31 -35 31 -131 0 -53 3 -67 14
-63 9 3 13 27 14 77 3 141 19 216 43 201 5 -3 9 -17 9 -30 0 -38 24 -24 31 17
8 49 9 51 111 112 124 74 227 120 383 172 223 73 437 98 653 74z m190 -911
c-2 -13 -11 -30 -20 -39 -10 -9 -18 -20 -18 -25 0 -5 -8 -17 -17 -25 -10 -9
-23 -25 -29 -35 -7 -10 -15 -16 -19 -12 -11 10 47 106 72 119 13 7 23 18 23
26 0 7 3 13 6 13 3 0 4 -10 2 -22z m-1910 -158 c-1 -57 -3 -60 -26 -60 -23 0
-24 3 -20 45 5 44 22 75 39 75 5 0 8 -27 7 -60z m1961 -476 c45 -90 48 -98 61
-183 9 -59 10 -85 2 -90 -7 -4 -5 -20 8 -49 17 -37 17 -44 5 -48 -19 -7 -112
62 -118 87 -3 13 -14 19 -31 19 -32 0 -34 23 -5 44 18 12 49 58 49 72 0 2 -6
4 -14 4 -8 0 -16 -10 -18 -22 -2 -15 -10 -23 -23 -23 -16 0 -21 8 -25 47 -5
37 -2 49 10 53 13 6 12 8 -4 20 -18 14 -18 16 12 49 17 19 33 44 37 56 10 31
25 20 54 -36z m-736 -5 c22 -39 21 -46 -3 -54 -11 -4 -18 -10 -15 -15 3 -5 1
-20 -5 -35 -7 -19 -16 -25 -32 -23 -11 2 -23 -3 -25 -9 -3 -7 4 -13 14 -14 10
0 13 -3 5 -6 -17 -7 -5 -23 18 -23 23 0 33 -31 28 -81 -2 -28 -12 -39 -58 -70
-56 -37 -78 -41 -64 -10 4 9 11 57 15 106 10 120 15 142 33 170 9 13 16 30 16
37 0 19 29 58 43 58 7 0 20 -14 30 -31z m927 1 c0 -5 -2 -10 -4 -10 -3 0 -8 5
-11 10 -3 6 -1 10 4 10 6 0 11 -4 11 -10z m-212 -356 c12 -8 20 -20 17 -25
-11 -16 5 -31 20 -19 10 8 21 7 44 -5 35 -17 36 -22 16 -49 -11 -14 -21 -17
-48 -12 -29 5 -39 15 -61 57 -37 71 -34 85 12 53z m-790 -93 c3 -15 -2 -21
-16 -21 -20 0 -47 45 -36 61 9 15 48 -15 52 -40z m-46 -368 c1 -21 1 -55 0
-76 -4 -61 -71 -339 -92 -380 -25 -47 -25 -54 0 -62 15 -5 20 -15 20 -39 0
-39 8 -50 27 -34 7 6 15 9 17 7 9 -11 15 -149 6 -154 -17 -10 -11 -49 21 -146
25 -71 29 -96 21 -110 -9 -13 -8 -19 3 -23 22 -8 18 -47 -5 -53 -11 -3 -20
-14 -20 -24 0 -30 -18 -31 -31 0 -15 34 -64 48 -90 25 -22 -20 -63 -17 -83 4
-9 11 -48 31 -87 47 -70 27 -71 28 -65 58 7 34 -22 119 -39 114 -12 -4 -55 58
-55 79 0 26 -20 53 -50 69 -17 9 -30 22 -30 29 0 8 -7 16 -15 20 -9 3 -15 0
-15 -9 0 -8 -5 -15 -11 -15 -7 0 -8 7 -4 18 18 41 17 62 -1 68 -11 3 -27 10
-36 15 -10 5 -24 9 -33 9 -33 0 -43 63 -32 204 5 67 9 71 117 135 88 53 365
191 382 191 7 0 29 10 48 21 37 23 96 47 118 48 7 1 13 -14 14 -36z m-822
-133 c0 -5 -7 -10 -15 -10 -8 0 -15 5 -15 10 0 6 7 10 15 10 8 0 15 -4 15 -10z
m100 -180 c0 -5 -7 -10 -15 -10 -8 0 -15 5 -15 10 0 6 7 10 15 10 8 0 15 -4
15 -10z m1174 -441 c43 -65 82 -119 87 -119 11 0 11 3 0 33 -14 36 -3 39 44
12 23 -14 49 -25 58 -25 23 0 67 -44 67 -66 0 -11 7 -29 15 -41 8 -12 12 -28
9 -36 -3 -8 -1 -18 5 -22 16 -9 13 -61 -4 -75 -9 -7 -13 -21 -9 -35 8 -33 -28
-43 -198 -54 -121 -8 -160 -7 -220 5 -108 22 -110 23 -103 46 4 11 1 33 -5 49
-10 24 -10 35 0 57 8 15 12 31 11 36 -3 12 19 67 34 86 15 18 24 56 33 130 6
46 10 55 27 55 12 0 28 -15 43 -40 18 -30 22 -34 19 -15 -3 14 -9 51 -12 83
-6 45 -4 57 6 56 8 0 49 -54 93 -120z m-926 -134 c6 -13 7 -27 2 -30 -11 -7
-40 22 -40 41 0 23 26 16 38 -11z m37 -35 c3 -5 1 -10 -4 -10 -6 0 -11 5 -11
10 0 6 2 10 4 10 3 0 8 -4 11 -10z"/>
<path d="M1667 3094 c-10 -11 -8 -44 2 -44 6 0 13 4 16 10 8 12 -9 43 -18 34z"/>
<path d="M1437 3075 c-4 -8 -2 -17 3 -20 6 -4 10 3 10 14 0 25 -6 27 -13 6z"/>
<path d="M1353 2914 c-3 -8 -1 -20 6 -27 8 -8 11 -4 11 16 0 30 -7 35 -17 11z"/>
<path d="M1557 2883 c-11 -10 -8 -43 3 -43 6 0 10 11 10 25 0 26 -2 29 -13 18z"/>
<path d="M1336 2555 c-10 -27 -7 -55 7 -55 24 0 39 18 35 41 -4 28 -33 37 -42
14z"/>
<path d="M1575 2150 c-7 -12 2 -30 16 -30 12 0 12 27 0 35 -5 3 -12 1 -16 -5z"/>
<path d="M4225 1360 c-3 -5 -1 -10 4 -10 6 0 11 5 11 10 0 6 -2 10 -4 10 -3 0
-8 -4 -11 -10z"/>
</g>
</svg>
