<?xml version="1.0" standalone="no"?>
<!DOCTYPE svg PUBLIC "-//W3C//DTD SVG 20010904//EN"
 "http://www.w3.org/TR/2001/REC-SVG-20010904/DTD/svg10.dtd">
<svg version="1.0" xmlns="http://www.w3.org/2000/svg"
 width="720.000000pt" height="1280.000000pt" viewBox="0 0 720.000000 1280.000000"
 preserveAspectRatio="xMidYMid meet">
<metadata>
Created by potrace 1.16, written by Peter Selinger 2001-2019
</metadata>
<g transform="translate(0.000000,1280.000000) scale(0.100000,-0.100000)"
fill="#000000" stroke="none">
<path d="M0 6400 l0 -6400 3600 0 3600 0 0 6400 0 6400 -3600 0 -3600 0 0
-6400z m3935 2008 c-67 -38 -166 -154 -148 -172 9 -9 186 -7 199 2 6 4 26 35
44 69 37 67 25 62 173 79 35 4 61 12 64 20 4 12 187 14 1143 14 1117 0 1186
-2 1140 -30 -16 -10 38 -20 107 -20 38 0 55 -4 59 -15 5 -12 25 -15 94 -15 49
0 91 -4 94 -9 11 -17 143 -51 198 -51 29 0 60 -5 68 -10 13 -8 15 -236 15
-1952 l0 -1943 -3580 0 c-1969 0 -3582 3 -3585 7 -3 3 -4 640 -3 1415 1 774 2
1681 2 2016 l1 607 1968 0 c1471 -1 1962 -3 1947 -12z"/>
<path d="M3200 8183 c-41 -2 -79 -8 -84 -13 -6 -6 -19 -10 -31 -10 -25 0 -128
-36 -170 -58 -86 -48 -224 -166 -238 -204 -7 -20 27 -31 70 -22 34 7 83 -27
83 -57 0 -17 8 -19 70 -19 64 0 70 2 70 21 0 11 -4 28 -10 38 -6 13 -5 24 4
36 14 19 10 65 -6 65 -5 0 0 10 12 22 11 12 20 25 20 29 0 4 29 21 65 38 59
27 73 30 155 28 71 -2 93 1 100 13 15 24 204 27 305 4 44 -9 87 -23 95 -30 16
-13 114 -54 130 -54 18 0 0 25 -28 38 -114 57 -249 112 -271 112 -15 0 -32 5
-38 11 -11 11 -187 19 -303 12z"/>
<path d="M4030 7953 c-12 -15 -18 -33 -14 -42 28 -67 44 -120 44 -147 0 -36
-42 -120 -59 -116 -6 1 -11 -5 -11 -14 0 -8 4 -13 9 -9 12 7 4 -96 -11 -143
-5 -18 -9 -56 -7 -85 1 -29 -2 -70 -8 -92 -22 -80 -35 -502 -17 -557 l7 -22
18 23 c11 13 19 31 19 40 0 15 5 33 46 160 13 41 15 101 14 344 -1 245 2 298
15 323 8 16 15 43 15 59 0 51 16 91 52 127 21 21 38 49 42 71 7 40 -6 77 -28
77 -8 0 -19 7 -26 15 -21 25 -76 19 -100 -12z"/>
<path d="M3018 7603 c-33 -5 -35 -18 -48 -313 -5 -118 -14 -231 -19 -250 -6
-19 -13 -91 -15 -160 -3 -69 -8 -164 -12 -212 -8 -106 5 -392 17 -363 4 11 9
36 10 55 l2 35 7 -40 7 -40 2 47 c1 47 18 98 32 98 9 0 16 32 30 135 6 44 15
105 20 135 6 30 14 98 20 150 5 52 16 156 24 230 16 145 19 344 6 424 -7 43
-32 79 -50 75 -3 -1 -18 -4 -33 -6z"/>
</g>
</svg>
